:FULLY-SPECIFIED
:FORCE-ALL-JOINTS-BE-3DOF
:DEGREES
2752
root -5.55334 13.9703 -28.3997 162.029 -65.2004 -161.111
lfemur -59.4739 42.9796 -6.31935
ltibia 67.907 -0 0
lfoot -2.45212 -1.32531 0.00104151
ltoes -31.3734 0 0
rfemur -30.8842 -18.5701 21.6859
rtibia 81.7896 -0 0
rfoot -35.068 -24.7738 0.00190771
rtoes -14.5734 0 0
lowerback 15.7319 5.82294 0.539031
upperback -4.02375 8.12633 1.48775
thorax -13.4706 3.80433 -0.848543
lowerneck -2.40296 9.61828 2.06363
upperneck 7.51545 12.5797 1.97991
head 2.80741 6.35005 0.686363
lclavicle 1.19519e-14 -1.59028e-15 0
lhumerus 3.53676 10.6925 83.9471
lradius 94.7989 -0 0
lwrist -19.1599 0 0
lhand -39.8025 27.6341 5.03134e-05
lfingers 7.12502 -0 0
lthumb -12.7774 57.2239 4.85456e-05
rclavicle 1.19519e-14 -1.59028e-15 0
rhumerus -57.8727 50.8944 -110.167
rradius 114.094 -0 0
rwrist -84.6794 0 0
rhand 4.62746 -26.959 5.14668e-05
rfingers 7.12502 -0 0
rthumb 30.0146 -54.5436 6.00369e-05
2753
root -5.56213 13.9602 -28.4066 162.056 -65.2098 -161.131
lfemur -59.544 43.0383 -6.31967
ltibia 68.0464 -0 0
lfoot -2.50361 -1.39034 0.0013862
ltoes -31.3876 0 0
rfemur -30.8742 -18.5934 21.6657
rtibia 81.8812 -0 0
rfoot -35.1666 -24.7987 0.00234913
rtoes -14.5853 0 0
lowerback 15.7071 5.82248 0.525532
upperback -4.03555 8.12303 1.48802
thorax -13.4715 3.80413 -0.83812
lowerneck -2.40234 9.61771 2.06594
upperneck 7.53802 12.5782 1.98089
head 2.81509 6.34942 0.687161
lclavicle 1.19519e-14 -1.59028e-15 0
lhumerus 3.53396 10.72 83.9455
lradius 94.7818 -0 0
lwrist -19.1813 0 0
lhand -39.7994 27.6396 6.2186e-05
lfingers 7.12502 -0 0
lthumb -12.7743 57.2295 6.00131e-05
rclavicle 1.19519e-14 -1.59028e-15 0
rhumerus -57.9005 50.8567 -110.188
rradius 114.098 -0 0
rwrist -84.6637 0 0
rhand 4.65983 -26.9404 8.15106e-05
rfingers 7.12502 -0 0
rthumb 30.0455 -54.5194 8.63039e-05
2754
root -5.57092 13.9501 -28.4135 162.083 -65.2191 -161.153
lfemur -59.6133 43.0976 -6.31846
ltibia 68.1878 -0 0
lfoot -2.55626 -1.45588 0.00175131
ltoes -31.4032 0 0
rfemur -30.8641 -18.6162 21.6451
rtibia 81.9759 -0 0
rfoot -35.2674 -24.8244 0.00277103
rtoes -14.5952 0 0
lowerback 15.6818 5.82203 0.511796
upperback -4.04742 8.1197 1.48852
thorax -13.4723 3.80395 -0.827245
lowerneck -2.40202 9.61717 2.06835
upperneck 7.56142 12.5768 1.98165
head 2.82313 6.34879 0.687934
lclavicle 1.19519e-14 -1.59028e-15 0
lhumerus 3.52942 10.7478 83.9439
lradius 94.7657 -0 0
lwrist -19.2009 0 0
lhand -39.7961 27.6461 7.35975e-05
lfingers 7.12502 -0 0
lthumb -12.7712 57.2362 7.10393e-05
rclavicle 1.19519e-14 -1.59028e-15 0
rhumerus -57.927 50.8198 -110.208
rradius 114.101 -0 0
rwrist -84.6492 0 0
rhand 4.69218 -26.9216 0.000116726
rfingers 7.12502 -0 0
rthumb 30.0763 -54.495 0.000115852
2755
root -5.57971 13.9399 -28.4205 162.111 -65.2283 -161.175
lfemur -59.682 43.1574 -6.31581
ltibia 68.3309 -0 0
lfoot -2.60997 -1.52188 0.00213064
ltoes -31.42 0 0
rfemur -30.8538 -18.6383 21.6242
rtibia 82.0734 -0 0
rfoot -35.3701 -24.8508 0.00317095
rtoes -14.6031 0 0
lowerback 15.656 5.82156 0.497854
upperback -4.05937 8.11633 1.48925
thorax -13.4728 3.80379 -0.815953
lowerneck -2.40198 9.61665 2.07086
upperneck 7.5856 12.5755 1.98222
head 2.83151 6.34818 0.688684
lclavicle 1.19519e-14 -1.59028e-15 0
lhumerus 3.52327 10.7757 83.9422
lradius 94.7538 -0 0
lwrist -19.2189 0 0
lhand -39.7928 27.6536 8.44655e-05
lfingers 7.12502 -0 0
lthumb -12.768 57.2439 8.15441e-05
rclavicle 1.19519e-14 -1.59028e-15 0
rhumerus -57.9522 50.7838 -110.228
rradius 114.12 -0 0
rwrist -84.6361 0 0
rhand 4.72451 -26.9026 0.000156306
rfingers 7.12502 -0 0
rthumb 30.1072 -54.4705 0.000148104
2756
root -5.58849 13.9298 -28.4274 162.138 -65.2373 -161.199
lfemur -59.7501 43.2177 -6.31179
ltibia 68.4757 -0 0
lfoot -2.66463 -1.5883 0.0025183
ltoes -31.4379 0 0
rfemur -30.8435 -18.6599 21.6031
rtibia 82.1736 -0 0
rfoot -35.4746 -24.878 0.0035466
rtoes -14.6092 0 0
lowerback 15.6297 5.82108 0.483738
upperback -4.07135 8.11294 1.49018
thorax -13.4732 3.80366 -0.804283
lowerneck -2.40223 9.61615 2.07346
upperneck 7.61051 12.5741 1.9826
head 2.84021 6.34758 0.689412
lclavicle 1.19519e-14 -1.59028e-15 0
lhumerus 3.51564 10.8038 83.9404
lradius 94.739 -0 0
lwrist -19.2352 0 0
lhand -39.7895 27.6621 9.47126e-05
lfingers 7.12502 -0 0
lthumb -12.7648 57.2526 9.14524e-05
rclavicle 1.19519e-14 -1.59028e-15 0
rhumerus -57.9762 50.7487 -110.248
rradius 114.111 -0 0
rwrist -84.6242 0 0
rhand 4.75685 -26.8835 0.000199468
rfingers 7.12502 -0 0
rthumb 30.138 -54.4458 0.0001825
2757
root -5.59728 13.9196 -28.4344 162.165 -65.2463 -161.224
lfemur -59.8177 43.2784 -6.3065
ltibia 68.6219 -0 0
lfoot -2.72014 -1.65512 0.0029087
ltoes -31.4568 0 0
rfemur -30.833 -18.681 21.5818
rtibia 82.2763 -0 0
rfoot -35.5809 -24.9059 0.0038958
rtoes -14.6135 0 0
lowerback 15.603 5.82059 0.46948
upperback -4.08338 8.10952 1.49132
thorax -13.4734 3.80354 -0.792271
lowerneck -2.40273 9.61568 2.07615
upperneck 7.6361 12.5728 1.98281
head 2.84921 6.34699 0.690119
lclavicle 1.19519e-14 -1.59028e-15 0
lhumerus 3.50667 10.832 83.9386
lradius 94.7249 -0 0
lwrist -19.25 0 0
lhand -39.7862 27.6714 0.000104267
lfingers 7.12502 -0 0
lthumb -12.7616 57.2621 0.000100694
rclavicle 1.19519e-14 -1.59028e-15 0
rhumerus -57.999 50.7144 -110.268
rradius 114.102 -0 0
rwrist -84.6134 0 0
rhand 4.78919 -26.8643 0.000245454
rfingers 7.12502 -0 0
rthumb 30.1689 -54.421 0.000218499
2758
root -5.60607 13.9095 -28.4413 162.191 -65.2552 -161.25
lfemur -59.8847 43.3394 -6.30002
ltibia 68.7694 -0 0
lfoot -2.77639 -1.72229 0.00329654
ltoes -31.4764 0 0
rfemur -30.8224 -18.7015 21.5603
rtibia 82.3812 -0 0
rfoot -35.6886 -24.9344 0.00421657
rtoes -14.6342 0 0
lowerback 15.576 5.82009 0.455109
upperback -4.09543 8.10608 1.49264
thorax -13.4734 3.80343 -0.779955
lowerneck -2.40348 9.61522 2.07891
upperneck 7.66232 12.5715 1.98286
head 2.85849 6.3464 0.690808
lclavicle 1.19519e-14 -1.59028e-15 0
lhumerus 3.49647 10.8603 83.9368
lradius 94.7115 -0 0
lwrist -19.2634 0 0
lhand -39.7828 27.6817 0.000113061
lfingers 7.12502 -0 0
lthumb -12.7584 57.2725 0.000109204
rclavicle 1.19519e-14 -1.59028e-15 0
rhumerus -58.0207 50.6809 -110.287
rradius 114.094 -0 0
rwrist -84.6037 0 0
rhand 4.82155 -26.8451 0.00029353
rfingers 7.12502 -0 0
rthumb 30.1998 -54.3961 0.000255581
2759
root -5.61486 13.8994 -28.4482 162.218 -65.2641 -161.276
lfemur -59.9512 43.4006 -6.29242
ltibia 68.9181 -0 0
lfoot -2.83327 -1.78977 0.00367683
ltoes -31.4966 0 0
rfemur -30.8119 -18.7215 21.5387
rtibia 82.4883 -0 0
rfoot -35.7977 -24.9636 0.00450711
rtoes -14.6188 0 0
lowerback 15.5486 5.81958 0.440659
upperback -4.10748 8.10263 1.49413
thorax -13.4734 3.80334 -0.767372
lowerneck -2.40445 9.61479 2.08174
upperneck 7.68912 12.5703 1.98275
head 2.86802 6.34583 0.691478
lclavicle 1.19519e-14 -1.59028e-15 0
lhumerus 3.48519 10.8886 83.935
lradius 94.6987 -0 0
lwrist -19.2753 0 0
lhand -39.7794 27.6927 0.000121036
lfingers 7.12502 -0 0
lthumb -12.7551 57.2837 0.000116925
rclavicle 1.19519e-14 -1.59028e-15 0
rhumerus -58.0414 50.6483 -110.306
rradius 114.085 -0 0
rwrist -84.5951 0 0
rhand 4.85395 -26.8258 0.000342986
rfingers 7.12502 -0 0
rthumb 30.2307 -54.3712 0.00029324
2760
root -5.62365 13.8892 -28.4552 162.244 -65.2729 -161.303
lfemur -60.0172 43.4619 -6.2838
ltibia 69.0677 -0 0
lfoot -2.89068 -1.85754 0.00404491
ltoes -31.5172 0 0
rfemur -30.8012 -18.741 21.5171
rtibia 82.5974 -0 0
rfoot -35.908 -24.9935 0.00476578
rtoes -14.6036 0 0
lowerback 15.5211 5.81905 0.42616
upperback -4.11952 8.09916 1.49578
thorax -13.4732 3.80326 -0.75456
lowerneck -2.40564 9.61438 2.08463
upperneck 7.71644 12.569 1.9825
head 2.87778 6.34526 0.692133
lclavicle 1.19519e-14 -1.59028e-15 0
lhumerus 3.47294 10.9171 83.9331
lradius 94.6864 -0 0
lwrist -19.2859 0 0
lhand -39.776 27.7044 0.000128138
lfingers 7.12502 -0 0
lthumb -12.7518 57.2956 0.000123804
rclavicle 1.19519e-14 -1.59028e-15 0
rhumerus -58.0611 50.6166 -110.325
rradius 114.111 -0 0
rwrist -84.5874 0 0
rhand 4.88638 -26.8064 0.000393135
rfingers 7.12502 -0 0
rthumb 30.2616 -54.3462 0.000330991
2761
root -5.63243 13.8791 -28.4621 162.27 -65.2818 -161.331
lfemur -60.0828 43.5234 -6.27423
ltibia 69.2182 -0 0
lfoot -2.94851 -1.92554 0.0043964
ltoes -31.5381 0 0
rfemur -30.7906 -18.76 21.4954
rtibia 82.7081 -0 0
rfoot -36.0193 -25.024 0.00499117
rtoes -14.6144 0 0
lowerback 15.4934 5.8185 0.411643
upperback -4.13154 8.09569 1.49758
thorax -13.4729 3.80319 -0.741555
lowerneck -2.40702 9.61399 2.08757
upperneck 7.74424 12.5678 1.98212
head 2.88776 6.3447 0.692773
lclavicle 1.19519e-14 -1.59028e-15 0
lhumerus 3.45987 10.9455 83.9313
lradius 94.6748 -0 0
lwrist -19.2952 0 0
lhand -39.7725 27.7168 0.000134321
lfingers 7.12502 -0 0
lthumb -12.7485 57.3082 0.000129796
rclavicle 1.19519e-14 -1.59028e-15 0
rhumerus -58.0799 50.5858 -110.343
rradius 114.104 -0 0
rwrist -84.5806 0 0
rhand 4.91887 -26.7871 0.000443317
rfingers 7.12502 -0 0
rthumb 30.2926 -54.3212 0.000368367
2762
root -5.64122 13.869 -28.469 162.296 -65.2906 -161.359
lfemur -60.148 43.5849 -6.2638
ltibia 69.3694 -0 0
lfoot -3.00666 -1.99375 0.00472729
ltoes -31.5591 0 0
rfemur -30.78 -18.7785 21.4738
rtibia 82.8205 -0 0
rfoot -36.1316 -25.055 0.00518208
rtoes -14.611 0 0
lowerback 15.4655 5.81794 0.39714
upperback -4.14353 8.09222 1.49951
thorax -13.4726 3.80313 -0.728396
lowerneck -2.40858 9.61361 2.09056
upperneck 7.77246 12.5666 1.98162
head 2.89793 6.34415 0.6934
lclavicle 1.19519e-14 -1.59028e-15 0
lhumerus 3.44609 10.974 83.9295
lradius 94.6636 -0 0
lwrist -19.3033 0 0
lhand -39.769 27.7299 0.000139545
lfingers 7.12502 -0 0
lthumb -12.7451 57.3215 0.000134864
rclavicle 1.19519e-14 -1.59028e-15 0
rhumerus -58.0978 50.5558 -110.361
rradius 114.097 -0 0
rwrist -84.5747 0 0
rhand 4.95143 -26.7678 0.000492891
rfingers 7.12502 -0 0
rthumb 30.3237 -54.2963 0.000404918
